<svg id="my-svg" width="100%" xmlns="http://www.w3.org/2000/svg" xmlns:xlink="http://www.w3.org/1999/xlink" class="statediagram" style="max-width: 1309.28px; background-color: white;" viewBox="0 0 1309.27734375 851" role="graphics-document document" aria-roledescription="stateDiagram"><style>#my-svg{font-family:"trebuchet ms",verdana,arial,sans-serif;font-size:16px;fill:#333;}@keyframes edge-animation-frame{from{stroke-dashoffset:0;}}@keyframes dash{to{stroke-dashoffset:0;}}#my-svg .edge-animation-slow{stroke-dasharray:9,5!important;stroke-dashoffset:900;animation:dash 50s linear infinite;stroke-linecap:round;}#my-svg .edge-animation-fast{stroke-dasharray:9,5!important;stroke-dashoffset:900;animation:dash 20s linear infinite;stroke-linecap:round;}#my-svg .error-icon{fill:#552222;}#my-svg .error-text{fill:#552222;stroke:#552222;}#my-svg .edge-thickness-normal{stroke-width:1px;}#my-svg .edge-thickness-thick{stroke-width:3.5px;}#my-svg .edge-pattern-solid{stroke-dasharray:0;}#my-svg .edge-thickness-invisible{stroke-width:0;fill:none;}#my-svg .edge-pattern-dashed{stroke-dasharray:3;}#my-svg .edge-pattern-dotted{stroke-dasharray:2;}#my-svg .marker{fill:#333333;stroke:#333333;}#my-svg .marker.cross{stroke:#333333;}#my-svg svg{font-family:"trebuchet ms",verdana,arial,sans-serif;font-size:16px;}#my-svg p{margin:0;}#my-svg defs #statediagram-barbEnd{fill:#333333;stroke:#333333;}#my-svg g.stateGroup text{fill:#9370DB;stroke:none;font-size:10px;}#my-svg g.stateGroup text{fill:#333;stroke:none;font-size:10px;}#my-svg g.stateGroup .state-title{font-weight:bolder;fill:#131300;}#my-svg g.stateGroup rect{fill:#ECECFF;stroke:#9370DB;}#my-svg g.stateGroup line{stroke:#333333;stroke-width:1;}#my-svg .transition{stroke:#333333;stroke-width:1;fill:none;}#my-svg .stateGroup .composit{fill:white;border-bottom:1px;}#my-svg .stateGroup .alt-composit{fill:#e0e0e0;border-bottom:1px;}#my-svg .state-note{stroke:#aaaa33;fill:#fff5ad;}#my-svg .state-note text{fill:black;stroke:none;font-size:10px;}#my-svg .stateLabel .box{stroke:none;stroke-width:0;fill:#ECECFF;opacity:0.5;}#my-svg .edgeLabel .label rect{fill:#ECECFF;opacity:0.5;}#my-svg .edgeLabel{background-color:rgba(232,232,232, 0.8);text-align:center;}#my-svg .edgeLabel p{background-color:rgba(232,232,232, 0.8);}#my-svg .edgeLabel rect{opacity:0.5;background-color:rgba(232,232,232, 0.8);fill:rgba(232,232,232, 0.8);}#my-svg .edgeLabel .label text{fill:#333;}#my-svg .label div .edgeLabel{color:#333;}#my-svg .stateLabel text{fill:#131300;font-size:10px;font-weight:bold;}#my-svg .node circle.state-start{fill:#333333;stroke:#333333;}#my-svg .node .fork-join{fill:#333333;stroke:#333333;}#my-svg .node circle.state-end{fill:#9370DB;stroke:white;stroke-width:1.5;}#my-svg .end-state-inner{fill:white;stroke-width:1.5;}#my-svg .node rect{fill:#ECECFF;stroke:#9370DB;stroke-width:1px;}#my-svg .node polygon{fill:#ECECFF;stroke:#9370DB;stroke-width:1px;}#my-svg #statediagram-barbEnd{fill:#333333;}#my-svg .statediagram-cluster rect{fill:#ECECFF;stroke:#9370DB;stroke-width:1px;}#my-svg .cluster-label,#my-svg .nodeLabel{color:#131300;}#my-svg .statediagram-cluster rect.outer{rx:5px;ry:5px;}#my-svg .statediagram-state .divider{stroke:#9370DB;}#my-svg .statediagram-state .title-state{rx:5px;ry:5px;}#my-svg .statediagram-cluster.statediagram-cluster .inner{fill:white;}#my-svg .statediagram-cluster.statediagram-cluster-alt .inner{fill:#f0f0f0;}#my-svg .statediagram-cluster .inner{rx:0;ry:0;}#my-svg .statediagram-state rect.basic{rx:5px;ry:5px;}#my-svg .statediagram-state rect.divider{stroke-dasharray:10,10;fill:#f0f0f0;}#my-svg .note-edge{stroke-dasharray:5;}#my-svg .statediagram-note rect{fill:#fff5ad;stroke:#aaaa33;stroke-width:1px;rx:0;ry:0;}#my-svg .statediagram-note rect{fill:#fff5ad;stroke:#aaaa33;stroke-width:1px;rx:0;ry:0;}#my-svg .statediagram-note text{fill:black;}#my-svg .statediagram-note .nodeLabel{color:black;}#my-svg .statediagram .edgeLabel{color:red;}#my-svg #dependencyStart,#my-svg #dependencyEnd{fill:#333333;stroke:#333333;stroke-width:1;}#my-svg .statediagramTitleText{text-anchor:middle;font-size:18px;fill:#333;}#my-svg :root{--mermaid-font-family:"trebuchet ms",verdana,arial,sans-serif;}</style><g><defs><marker id="my-svg_stateDiagram-barbEnd" refX="19" refY="7" markerWidth="20" markerHeight="14" markerUnits="userSpaceOnUse" orient="auto"><path d="M 19,7 L9,13 L14,7 L9,1 Z"/></marker></defs><g class="root"><g class="clusters"><g class="statediagram-state statediagram-cluster" id="WritePath" data-id="WritePath" data-look="classic"><g><rect class="outer" x="8" y="72" width="629.1796875" height="771" data-look="classic"/></g><g class="cluster-label" transform="translate(290.73828125, 73)"><foreignObject width="63.703125" height="24"><div xmlns="http://www.w3.org/1999/xhtml" style="display: table-cell; white-space: nowrap; line-height: 1.5;"><span class="nodeLabel"><p>쓰기 경로</p></span></div></foreignObject></g><rect class="inner" x="8" y="98" width="629.1796875" height="741"/></g><g class="statediagram-state statediagram-cluster" id="ReadPath" data-id="ReadPath" data-look="classic"><g><rect class="outer" x="977.1796875" y="211" width="324.09765625" height="493" data-look="classic"/></g><g class="cluster-label" transform="translate(1107.376953125, 212)"><foreignObject width="63.703125" height="24"><div xmlns="http://www.w3.org/1999/xhtml" style="display: table-cell; white-space: nowrap; line-height: 1.5;"><span class="nodeLabel"><p>읽기 경로</p></span></div></foreignObject></g><rect class="inner" x="977.1796875" y="237" width="324.09765625" height="463"/></g><g class="note-cluster" id="ReadPath----parent"><rect x="657.1796875" y="413" width="300" height="152" fill="none"/></g><g class="note-cluster" id="WritePath----parent"><rect x="657.4296875" y="211" width="299.5" height="128" fill="none"/></g></g><g class="edgePaths"><path d="M489.133,22L489.133,26.167C489.133,30.333,489.133,38.667,489.133,47C489.133,55.333,489.133,63.667,489.133,72C489.133,80.333,489.133,88.667,489.133,92.833L489.133,97" id="edge0" class="edge-thickness-normal edge-pattern-solid transition" style="fill:none;;;fill:none" data-edge="true" data-et="edge" data-id="edge0" data-points="W3sieCI6NDg5LjEzMjgxMjUsInkiOjIyfSx7IngiOjQ4OS4xMzI4MTI1LCJ5Ijo0N30seyJ4Ijo0ODkuMTMyODEyNSwieSI6NzJ9LHsieCI6NDg5LjEzMjgxMjUsInkiOjk3fV0=" marker-end="url(#my-svg_stateDiagram-barbEnd)"/><path d="M510.539,129.684L523.004,137.07C535.469,144.456,560.398,159.228,572.863,172.781C585.328,186.333,585.328,198.667,663.938,214.632C742.548,230.596,899.768,250.193,978.378,259.991L1056.988,269.789" id="edge1" class="edge-thickness-normal edge-pattern-solid transition" style="fill:none;;;fill:none" data-edge="true" data-et="edge" data-id="edge1" data-points="W3sieCI6NTEwLjUzOTA2MjUsInkiOjEyOS42ODQxNTQ5NTgxNzQyOH0seyJ4Ijo1ODUuMzI4MTI1LCJ5IjoxNzR9LHsieCI6NTg1LjMyODEyNSwieSI6MjExfSx7IngiOjEwNTYuOTg4MjgxMjUsInkiOjI2OS43ODkzMjE5MzIwMzM0M31d" marker-end="url(#my-svg_stateDiagram-barbEnd)"/><path d="M1117.722,295L1124.663,302.333C1131.604,309.667,1145.486,324.333,1152.426,337.833C1159.367,351.333,1159.367,363.667,1159.367,376C1159.367,388.333,1159.367,400.667,1159.367,416.167C1159.367,431.667,1159.367,450.333,1159.367,459.667L1159.367,469" id="edge2" class="edge-thickness-normal edge-pattern-solid transition" style="fill:none;;;fill:none" data-edge="true" data-et="edge" data-id="edge2" data-points="W3sieCI6MTExNy43MjI0MTIxMDkzNzUsInkiOjI5NX0seyJ4IjoxMTU5LjM2NzE4NzUsInkiOjMzOX0seyJ4IjoxMTU5LjM2NzE4NzUsInkiOjM3Nn0seyJ4IjoxMTU5LjM2NzE4NzUsInkiOjQxM30seyJ4IjoxMTU5LjM2NzE4NzUsInkiOjQ2OX1d" marker-end="url(#my-svg_stateDiagram-barbEnd)"/><path d="M1129.03,509L1114.873,518.333C1100.715,527.667,1072.401,546.333,1058.243,561.833C1044.086,577.333,1044.086,589.667,1050.277,602C1056.467,614.333,1068.849,626.667,1075.04,632.833L1081.23,639" id="edge3" class="edge-thickness-normal edge-pattern-solid transition" style="fill:none;;;fill:none" data-edge="true" data-et="edge" data-id="edge3" data-points="W3sieCI6MTEyOS4wMzAwMTY0NDczNjgzLCJ5Ijo1MDl9LHsieCI6MTA0NC4wODU5Mzc1LCJ5Ijo1NjV9LHsieCI6MTA0NC4wODU5Mzc1LCJ5Ijo2MDJ9LHsieCI6MTA4MS4yMzA0Njg3NSwieSI6NjM5fV0=" marker-end="url(#my-svg_stateDiagram-barbEnd)"/><path d="M1113.182,639L1116.843,632.833C1120.504,626.667,1127.826,614.333,1131.487,602C1135.148,589.667,1135.148,577.333,1138.123,561.833C1141.097,546.333,1147.045,527.667,1150.02,518.333L1152.994,509" id="edge4" class="edge-thickness-normal edge-pattern-solid transition" style="fill:none;;;fill:none" data-edge="true" data-et="edge" data-id="edge4" data-points="W3sieCI6MTExMy4xODIyMjMxMzU5NjUsInkiOjYzOX0seyJ4IjoxMTM1LjE0ODQzNzUsInkiOjYwMn0seyJ4IjoxMTM1LjE0ODQzNzUsInkiOjU2NX0seyJ4IjoxMTUyLjk5MzgzMjIzNjg0MiwieSI6NTA5fV0=" marker-end="url(#my-svg_stateDiagram-barbEnd)"/><path d="M1178.196,509L1186.983,518.333C1195.77,527.667,1213.344,546.333,1222.131,561.833C1230.918,577.333,1230.918,589.667,1230.918,602C1230.918,614.333,1230.918,626.667,1230.918,632.833L1230.918,639" id="edge5" class="edge-thickness-normal edge-pattern-solid transition" style="fill:none;;;fill:none" data-edge="true" data-et="edge" data-id="edge5" data-points="W3sieCI6MTE3OC4xOTYzNDA0NjA1MjYyLCJ5Ijo1MDl9LHsieCI6MTIzMC45MTc5Njg3NSwieSI6NTY1fSx7IngiOjEyMzAuOTE3OTY4NzUsInkiOjYwMn0seyJ4IjoxMjMwLjkxNzk2ODc1LCJ5Ijo2Mzl9XQ==" marker-end="url(#my-svg_stateDiagram-barbEnd)"/><path d="M1195.559,656.191L1081.878,647.159C968.198,638.127,740.837,620.064,627.157,604.865C513.477,589.667,513.477,577.333,513.477,558.5C513.477,539.667,513.477,514.333,513.477,489C513.477,463.667,513.477,438.333,513.477,419.5C513.477,400.667,513.477,388.333,513.477,376C513.477,363.667,513.477,351.333,513.477,334.5C513.477,317.667,513.477,296.333,513.477,275C513.477,253.667,513.477,232.333,513.477,215.5C513.477,198.667,513.477,186.333,510.843,174C508.209,161.667,502.942,149.333,500.308,143.167L497.674,137" id="edge6" class="edge-thickness-normal edge-pattern-solid transition" style="fill:none;;;fill:none" data-edge="true" data-et="edge" data-id="edge6" data-points="W3sieCI6MTE5NS41NTg1OTM3NSwieSI6NjU2LjE5MDczMzEyODI0OTh9LHsieCI6NTEzLjQ3NjU2MjUsInkiOjYwMn0seyJ4Ijo1MTMuNDc2NTYyNSwieSI6NTY1fSx7IngiOjUxMy40NzY1NjI1LCJ5Ijo0ODl9LHsieCI6NTEzLjQ3NjU2MjUsInkiOjQxM30seyJ4Ijo1MTMuNDc2NTYyNSwieSI6Mzc2fSx7IngiOjUxMy40NzY1NjI1LCJ5IjozMzl9LHsieCI6NTEzLjQ3NjU2MjUsInkiOjI3NX0seyJ4Ijo1MTMuNDc2NTYyNSwieSI6MjExfSx7IngiOjUxMy40NzY1NjI1LCJ5IjoxNzR9LHsieCI6NDk3LjY3NDQ3OTE2NjY2NjcsInkiOjEzN31d" marker-end="url(#my-svg_stateDiagram-barbEnd)"/><path d="M467.727,121.221L423.113,130.017C378.5,138.814,289.273,156.407,244.66,171.37C200.047,186.333,200.047,198.667,200.047,212.167C200.047,225.667,200.047,240.333,200.047,247.667L200.047,255" id="edge7" class="edge-thickness-normal edge-pattern-solid transition" style="fill:none;;;fill:none" data-edge="true" data-et="edge" data-id="edge7" data-points="W3sieCI6NDY3LjcyNjU2MjUsInkiOjEyMS4yMjA3Mzg4NTkwMTE0M30seyJ4IjoyMDAuMDQ2ODc1LCJ5IjoxNzR9LHsieCI6MjAwLjA0Njg3NSwieSI6MjExfSx7IngiOjIwMC4wNDY4NzUsInkiOjI1NX1d" marker-end="url(#my-svg_stateDiagram-barbEnd)"/><path d="M200.047,295L200.047,302.333C200.047,309.667,200.047,324.333,200.047,337.833C200.047,351.333,200.047,363.667,200.047,376C200.047,388.333,200.047,400.667,200.047,416.167C200.047,431.667,200.047,450.333,200.047,459.667L200.047,469" id="edge8" class="edge-thickness-normal edge-pattern-solid transition" style="fill:none;;;fill:none" data-edge="true" data-et="edge" data-id="edge8" data-points="W3sieCI6MjAwLjA0Njg3NSwieSI6Mjk1fSx7IngiOjIwMC4wNDY4NzUsInkiOjMzOX0seyJ4IjoyMDAuMDQ2ODc1LCJ5IjozNzZ9LHsieCI6MjAwLjA0Njg3NSwieSI6NDEzfSx7IngiOjIwMC4wNDY4NzUsInkiOjQ2OX1d" marker-end="url(#my-svg_stateDiagram-barbEnd)"/><path d="M200.047,509L200.047,518.333C200.047,527.667,200.047,546.333,200.047,561.833C200.047,577.333,200.047,589.667,200.047,602C200.047,614.333,200.047,626.667,200.047,632.833L200.047,639" id="edge9" class="edge-thickness-normal edge-pattern-solid transition" style="fill:none;;;fill:none" data-edge="true" data-et="edge" data-id="edge9" data-points="W3sieCI6MjAwLjA0Njg3NSwieSI6NTA5fSx7IngiOjIwMC4wNDY4NzUsInkiOjU2NX0seyJ4IjoyMDAuMDQ2ODc1LCJ5Ijo2MDJ9LHsieCI6MjAwLjA0Njg3NSwieSI6NjM5fV0=" marker-end="url(#my-svg_stateDiagram-barbEnd)"/><path d="M154.477,675.579L141.456,680.316C128.436,685.053,102.396,694.526,89.376,705.43C76.355,716.333,76.355,728.667,81.281,741C86.207,753.333,96.059,765.667,100.985,771.833L105.911,778" id="edge10" class="edge-thickness-normal edge-pattern-solid transition" style="fill:none;;;fill:none" data-edge="true" data-et="edge" data-id="edge10" data-points="W3sieCI6MTU0LjQ3NjU2MjUsInkiOjY3NS41Nzg4NzI1NzIyNDA3fSx7IngiOjc2LjM1NTQ2ODc1LCJ5Ijo3MDR9LHsieCI6NzYuMzU1NDY4NzUsInkiOjc0MX0seyJ4IjoxMDUuOTEwODQxNTU3MDE3NTUsInkiOjc3OH1d" marker-end="url(#my-svg_stateDiagram-barbEnd)"/><path d="M137.863,778L142.788,771.833C147.714,765.667,157.566,753.333,162.492,741C167.418,728.667,167.418,716.333,170.439,706C173.46,695.667,179.503,687.333,182.524,683.167L185.545,679" id="edge11" class="edge-thickness-normal edge-pattern-solid transition" style="fill:none;;;fill:none" data-edge="true" data-et="edge" data-id="edge11" data-points="W3sieCI6MTM3Ljg2MjU5NTk0Mjk4MjQ3LCJ5Ijo3Nzh9LHsieCI6MTY3LjQxNzk2ODc1LCJ5Ijo3NDF9LHsieCI6MTY3LjQxNzk2ODc1LCJ5Ijo3MDR9LHsieCI6MTg1LjU0NTEzODg4ODg4ODg5LCJ5Ijo2Nzl9XQ==" marker-end="url(#my-svg_stateDiagram-barbEnd)"/><path d="M223.198,679L228.021,683.167C232.844,687.333,242.49,695.667,247.314,706C252.137,716.333,252.137,728.667,257.137,741C262.138,753.333,272.14,765.667,277.14,771.833L282.141,778" id="edge12" class="edge-thickness-normal edge-pattern-solid transition" style="fill:none;;;fill:none" data-edge="true" data-et="edge" data-id="edge12" data-points="W3sieCI6MjIzLjE5NzkxNjY2NjY2NjY2LCJ5Ijo2Nzl9LHsieCI6MjUyLjEzNjcxODc1LCJ5Ijo3MDR9LHsieCI6MjUyLjEzNjcxODc1LCJ5Ijo3NDF9LHsieCI6MjgyLjE0MDg5OTEyMjgwNywieSI6Nzc4fV0=" marker-end="url(#my-svg_stateDiagram-barbEnd)"/><path d="M315.687,778L321.029,771.833C326.372,765.667,337.057,753.333,342.4,741C347.742,728.667,347.742,716.333,347.742,702.667C347.742,689,347.742,674,347.742,657C347.742,640,347.742,621,347.742,605.333C347.742,589.667,347.742,577.333,347.742,558.5C347.742,539.667,347.742,514.333,347.742,489C347.742,463.667,347.742,438.333,347.742,419.5C347.742,400.667,347.742,388.333,347.742,376C347.742,363.667,347.742,351.333,347.742,334.5C347.742,317.667,347.742,296.333,347.742,275C347.742,253.667,347.742,232.333,347.742,215.5C347.742,198.667,347.742,186.333,367.74,172.105C387.737,157.877,427.732,141.753,447.729,133.691L467.727,125.63" id="edge13" class="edge-thickness-normal edge-pattern-solid transition" style="fill:none;;;fill:none" data-edge="true" data-et="edge" data-id="edge13" data-points="W3sieCI6MzE1LjY4NjY3NzYzMTU3ODk2LCJ5Ijo3Nzh9LHsieCI6MzQ3Ljc0MjE4NzUsInkiOjc0MX0seyJ4IjozNDcuNzQyMTg3NSwieSI6NzA0fSx7IngiOjM0Ny43NDIxODc1LCJ5Ijo2NTl9LHsieCI6MzQ3Ljc0MjE4NzUsInkiOjYwMn0seyJ4IjozNDcuNzQyMTg3NSwieSI6NTY1fSx7IngiOjM0Ny43NDIxODc1LCJ5Ijo0ODl9LHsieCI6MzQ3Ljc0MjE4NzUsInkiOjQxM30seyJ4IjozNDcuNzQyMTg3NSwieSI6Mzc2fSx7IngiOjM0Ny43NDIxODc1LCJ5IjozMzl9LHsieCI6MzQ3Ljc0MjE4NzUsInkiOjI3NX0seyJ4IjozNDcuNzQyMTg3NSwieSI6MjExfSx7IngiOjM0Ny43NDIxODc1LCJ5IjoxNzR9LHsieCI6NDY3LjcyNjU2MjUsInkiOjEyNS42Mjk2ODI4Mzc4ODI2NH1d" marker-end="url(#my-svg_stateDiagram-barbEnd)"/><path d="M245.617,669.636L270.156,675.363C294.695,681.091,343.773,692.545,368.313,704.439C392.852,716.333,392.852,728.667,398.194,741C403.537,753.333,414.222,765.667,419.564,771.833L424.907,778" id="edge14" class="edge-thickness-normal edge-pattern-solid transition" style="fill:none;;;fill:none" data-edge="true" data-et="edge" data-id="edge14" data-points="W3sieCI6MjQ1LjYxNzE4NzUsInkiOjY2OS42MzU5NjU4MDA4ODM0fSx7IngiOjM5Mi44NTE1NjI1LCJ5Ijo3MDR9LHsieCI6MzkyLjg1MTU2MjUsInkiOjc0MX0seyJ4Ijo0MjQuOTA3MDcyMzY4NDIxMDQsInkiOjc3OH1d" marker-end="url(#my-svg_stateDiagram-barbEnd)"/><path d="M450.148,778L452.588,771.833C455.029,765.667,459.909,753.333,462.349,741C464.789,728.667,464.789,716.333,464.789,702.667C464.789,689,464.789,674,464.789,657C464.789,640,464.789,621,464.789,605.333C464.789,589.667,464.789,577.333,464.789,558.5C464.789,539.667,464.789,514.333,464.789,489C464.789,463.667,464.789,438.333,464.789,419.5C464.789,400.667,464.789,388.333,464.789,376C464.789,363.667,464.789,351.333,464.789,334.5C464.789,317.667,464.789,296.333,464.789,275C464.789,253.667,464.789,232.333,464.789,215.5C464.789,198.667,464.789,186.333,467.423,174C470.056,161.667,475.324,149.333,477.957,143.167L480.591,137" id="edge15" class="edge-thickness-normal edge-pattern-solid transition" style="fill:none;;;fill:none" data-edge="true" data-et="edge" data-id="edge15" data-points="W3sieCI6NDUwLjE0ODMwMDQzODU5NjUsInkiOjc3OH0seyJ4Ijo0NjQuNzg5MDYyNSwieSI6NzQxfSx7IngiOjQ2NC43ODkwNjI1LCJ5Ijo3MDR9LHsieCI6NDY0Ljc4OTA2MjUsInkiOjY1OX0seyJ4Ijo0NjQuNzg5MDYyNSwieSI6NjAyfSx7IngiOjQ2NC43ODkwNjI1LCJ5Ijo1NjV9LHsieCI6NDY0Ljc4OTA2MjUsInkiOjQ4OX0seyJ4Ijo0NjQuNzg5MDYyNSwieSI6NDEzfSx7IngiOjQ2NC43ODkwNjI1LCJ5IjozNzZ9LHsieCI6NDY0Ljc4OTA2MjUsInkiOjMzOX0seyJ4Ijo0NjQuNzg5MDYyNSwieSI6Mjc1fSx7IngiOjQ2NC43ODkwNjI1LCJ5IjoyMTF9LHsieCI6NDY0Ljc4OTA2MjUsInkiOjE3NH0seyJ4Ijo0ODAuNTkxMTQ1ODMzMzMzMywieSI6MTM3fV0=" marker-end="url(#my-svg_stateDiagram-barbEnd)"/><path d="M977.18,431.871L922.18,449.542" id="ReadPath-ReadPath----note-16" class="edge-thickness-normal edge-pattern-solid transition note-edge" style="fill:none;;;fill:none" data-edge="true" data-et="edge" data-id="ReadPath-ReadPath----note-16" data-points="W3sieCI6MTA3Ni44ODM3ODkwNjI1LCJ5IjoyOTV9LHsieCI6MTAyOC42ODM1OTM3NSwieSI6MzM5fSx7IngiOjEwMjguNjgzNTkzNzUsInkiOjM3Nn0seyJ4IjoxMDI4LjY4MzU5Mzc1LCJ5Ijo0MTN9LHsieCI6OTIyLjE3OTY4NzUsInkiOjQ0OS41NDI0NTY1NzM0OTQ0fV0="/><path d="M637.18,223.919L692.43,248.168" id="WritePath-WritePath----note-17" class="edge-thickness-normal edge-pattern-solid transition note-edge" style="fill:none;;;fill:none" data-edge="true" data-et="edge" data-id="WritePath-WritePath----note-17" data-points="W3sieCI6NTA0LjY5MjAyMzAyNjMxNTgsInkiOjEzN30seyJ4Ijo1MzMuNDc2NTYyNSwieSI6MTc0fSx7IngiOjUzMy40NzY1NjI1LCJ5IjoyMTF9LHsieCI6NjkyLjQyOTY4NzUsInkiOjI0OC4xNjgwMDgyMjA1ODU3fV0="/></g><g class="edgeLabels"><g class="edgeLabel"><g class="label" data-id="edge0" transform="translate(0, 0)"><foreignObject width="0" height="0"><div xmlns="http://www.w3.org/1999/xhtml" class="labelBkg" style="display: table-cell; white-space: nowrap; line-height: 1.5; max-width: 200px; text-align: center;"><span class="edgeLabel"></span></div></foreignObject></g></g><g class="edgeLabel" transform="translate(585.328125, 174)"><g class="label" data-id="edge1" transform="translate(-31.8515625, -12)"><foreignObject width="63.703125" height="24"><div xmlns="http://www.w3.org/1999/xhtml" class="labelBkg" style="display: table-cell; white-space: nowrap; line-height: 1.5; max-width: 200px; text-align: center;"><span class="edgeLabel"><p>읽기 요청</p></span></div></foreignObject></g></g><g class="edgeLabel" transform="translate(1159.3671875, 376)"><g class="label" data-id="edge2" transform="translate(-52.7109375, -12)"><foreignObject width="105.421875" height="24"><div xmlns="http://www.w3.org/1999/xhtml" class="labelBkg" style="display: table-cell; white-space: nowrap; line-height: 1.5; max-width: 200px; text-align: center;"><span class="edgeLabel"><p>begin_ro_txn()</p></span></div></foreignObject></g></g><g class="edgeLabel" transform="translate(1044.0859375, 602)"><g class="label" data-id="edge3" transform="translate(-39.2109375, -12)"><foreignObject width="78.421875" height="24"><div xmlns="http://www.w3.org/1999/xhtml" class="labelBkg" style="display: table-cell; white-space: nowrap; line-height: 1.5; max-width: 200px; text-align: center;"><span class="edgeLabel"><p>데이터 조회</p></span></div></foreignObject></g></g><g class="edgeLabel" transform="translate(1135.1484375, 602)"><g class="label" data-id="edge4" transform="translate(-31.8515625, -12)"><foreignObject width="63.703125" height="24"><div xmlns="http://www.w3.org/1999/xhtml" class="labelBkg" style="display: table-cell; white-space: nowrap; line-height: 1.5; max-width: 200px; text-align: center;"><span class="edgeLabel"><p>추가 조회</p></span></div></foreignObject></g></g><g class="edgeLabel" transform="translate(1230.91796875, 602)"><g class="label" data-id="edge5" transform="translate(-14.7265625, -12)"><foreignObject width="29.453125" height="24"><div xmlns="http://www.w3.org/1999/xhtml" class="labelBkg" style="display: table-cell; white-space: nowrap; line-height: 1.5; max-width: 200px; text-align: center;"><span class="edgeLabel"><p>완료</p></span></div></foreignObject></g></g><g class="edgeLabel" transform="translate(513.4765625, 376)"><g class="label" data-id="edge6" transform="translate(-28.6875, -12)"><foreignObject width="57.375" height="24"><div xmlns="http://www.w3.org/1999/xhtml" class="labelBkg" style="display: table-cell; white-space: nowrap; line-height: 1.5; max-width: 200px; text-align: center;"><span class="edgeLabel"><p>txn 해제</p></span></div></foreignObject></g></g><g class="edgeLabel" transform="translate(200.046875, 174)"><g class="label" data-id="edge7" transform="translate(-31.8515625, -12)"><foreignObject width="63.703125" height="24"><div xmlns="http://www.w3.org/1999/xhtml" class="labelBkg" style="display: table-cell; white-space: nowrap; line-height: 1.5; max-width: 200px; text-align: center;"><span class="edgeLabel"><p>쓰기 요청</p></span></div></foreignObject></g></g><g class="edgeLabel" transform="translate(200.046875, 376)"><g class="label" data-id="edge8" transform="translate(-63.703125, -12)"><foreignObject width="127.40625" height="24"><div xmlns="http://www.w3.org/1999/xhtml" class="labelBkg" style="display: table-cell; white-space: nowrap; line-height: 1.5; max-width: 200px; text-align: center;"><span class="edgeLabel"><p>라이터 스레드 획득</p></span></div></foreignObject></g></g><g class="edgeLabel" transform="translate(200.046875, 602)"><g class="label" data-id="edge9" transform="translate(-54.3671875, -12)"><foreignObject width="108.734375" height="24"><div xmlns="http://www.w3.org/1999/xhtml" class="labelBkg" style="display: table-cell; white-space: nowrap; line-height: 1.5; max-width: 200px; text-align: center;"><span class="edgeLabel"><p>begin_rw_txn()</p></span></div></foreignObject></g></g><g class="edgeLabel" transform="translate(76.35546875, 741)"><g class="label" data-id="edge10" transform="translate(-39.2109375, -12)"><foreignObject width="78.421875" height="24"><div xmlns="http://www.w3.org/1999/xhtml" class="labelBkg" style="display: table-cell; white-space: nowrap; line-height: 1.5; max-width: 200px; text-align: center;"><span class="edgeLabel"><p>데이터 수정</p></span></div></foreignObject></g></g><g class="edgeLabel" transform="translate(167.41796875, 741)"><g class="label" data-id="edge11" transform="translate(-31.8515625, -12)"><foreignObject width="63.703125" height="24"><div xmlns="http://www.w3.org/1999/xhtml" class="labelBkg" style="display: table-cell; white-space: nowrap; line-height: 1.5; max-width: 200px; text-align: center;"><span class="edgeLabel"><p>추가 수정</p></span></div></foreignObject></g></g><g class="edgeLabel" transform="translate(252.13671875, 741)"><g class="label" data-id="edge12" transform="translate(-32.8671875, -12)"><foreignObject width="65.734375" height="24"><div xmlns="http://www.w3.org/1999/xhtml" class="labelBkg" style="display: table-cell; white-space: nowrap; line-height: 1.5; max-width: 200px; text-align: center;"><span class="edgeLabel"><p>commit()</p></span></div></foreignObject></g></g><g class="edgeLabel" transform="translate(347.7421875, 489)"><g class="label" data-id="edge13" transform="translate(-14.7265625, -12)"><foreignObject width="29.453125" height="24"><div xmlns="http://www.w3.org/1999/xhtml" class="labelBkg" style="display: table-cell; white-space: nowrap; line-height: 1.5; max-width: 200px; text-align: center;"><span class="edgeLabel"><p>성공</p></span></div></foreignObject></g></g><g class="edgeLabel" transform="translate(392.8515625, 741)"><g class="label" data-id="edge14" transform="translate(-25.109375, -12)"><foreignObject width="50.21875" height="24"><div xmlns="http://www.w3.org/1999/xhtml" class="labelBkg" style="display: table-cell; white-space: nowrap; line-height: 1.5; max-width: 200px; text-align: center;"><span class="edgeLabel"><p>abort()</p></span></div></foreignObject></g></g><g class="edgeLabel" transform="translate(464.7890625, 489)"><g class="label" data-id="edge15" transform="translate(-14.7265625, -12)"><foreignObject width="29.453125" height="24"><div xmlns="http://www.w3.org/1999/xhtml" class="labelBkg" style="display: table-cell; white-space: nowrap; line-height: 1.5; max-width: 200px; text-align: center;"><span class="edgeLabel"><p>롤백</p></span></div></foreignObject></g></g><g class="edgeLabel"><g class="label" data-id="ReadPath-ReadPath----note-16" transform="translate(0, 0)"><foreignObject width="0" height="0"><div xmlns="http://www.w3.org/1999/xhtml" class="labelBkg" style="display: table-cell; white-space: nowrap; line-height: 1.5; max-width: 200px; text-align: center;"><span class="edgeLabel"></span></div></foreignObject></g></g><g class="edgeLabel"><g class="label" data-id="WritePath-WritePath----note-17" transform="translate(0, 0)"><foreignObject width="0" height="0"><div xmlns="http://www.w3.org/1999/xhtml" class="labelBkg" style="display: table-cell; white-space: nowrap; line-height: 1.5; max-width: 200px; text-align: center;"><span class="edgeLabel"></span></div></foreignObject></g></g></g><g class="nodes"><g class="node default" id="state-root_start-0" transform="translate(489.1328125, 15)"><circle class="state-start" r="7" width="14" height="14"/></g><g class="node  statediagram-state" id="state-Idle-15" transform="translate(489.1328125, 117)"><rect class="basic label-container" style="" rx="5" ry="5" x="-21.40625" y="-20" width="42.8125" height="40"/><g class="label" style="" transform="translate(-13.40625, -12)"><rect/><foreignObject width="26.8125" height="24"><div xmlns="http://www.w3.org/1999/xhtml" style="display: table-cell; white-space: nowrap; line-height: 1.5; max-width: 200px; text-align: center;"><span class="nodeLabel"><p>Idle</p></span></div></foreignObject></g></g><g class="node  statediagram-state" id="state-RO_Begin-2" transform="translate(1098.79296875, 275)"><rect class="basic label-container" style="" rx="5" ry="5" x="-41.8046875" y="-20" width="83.609375" height="40"/><g class="label" style="" transform="translate(-33.8046875, -12)"><rect/><foreignObject width="67.609375" height="24"><div xmlns="http://www.w3.org/1999/xhtml" style="display: table-cell; white-space: nowrap; line-height: 1.5; max-width: 200px; text-align: center;"><span class="nodeLabel"><p>RO_Begin</p></span></div></foreignObject></g></g><g class="node  statediagram-state" id="state-RO_Active-5" transform="translate(1159.3671875, 489)"><rect class="basic label-container" style="" rx="5" ry="5" x="-44.65625" y="-20" width="89.3125" height="40"/><g class="label" style="" transform="translate(-36.65625, -12)"><rect/><foreignObject width="73.3125" height="24"><div xmlns="http://www.w3.org/1999/xhtml" style="display: table-cell; white-space: nowrap; line-height: 1.5; max-width: 200px; text-align: center;"><span class="nodeLabel"><p>RO_Active</p></span></div></foreignObject></g></g><g class="node  statediagram-state" id="state-RO_Read-4" transform="translate(1101.30859375, 659)"><rect class="basic label-container" style="" rx="5" ry="5" x="-39.6015625" y="-20" width="79.203125" height="40"/><g class="label" style="" transform="translate(-31.6015625, -12)"><rect/><foreignObject width="63.203125" height="24"><div xmlns="http://www.w3.org/1999/xhtml" style="display: table-cell; white-space: nowrap; line-height: 1.5; max-width: 200px; text-align: center;"><span class="nodeLabel"><p>RO_Read</p></span></div></foreignObject></g></g><g class="node  statediagram-state" id="state-RO_End-6" transform="translate(1230.91796875, 659)"><rect class="basic label-container" style="" rx="5" ry="5" x="-35.359375" y="-20" width="70.71875" height="40"/><g class="label" style="" transform="translate(-27.359375, -12)"><rect/><foreignObject width="54.71875" height="24"><div xmlns="http://www.w3.org/1999/xhtml" style="display: table-cell; white-space: nowrap; line-height: 1.5; max-width: 200px; text-align: center;"><span class="nodeLabel"><p>RO_End</p></span></div></foreignObject></g></g><g class="node  statediagram-state" id="state-RW_Queue-8" transform="translate(200.046875, 275)"><rect class="basic label-container" style="" rx="5" ry="5" x="-46.03125" y="-20" width="92.0625" height="40"/><g class="label" style="" transform="translate(-38.03125, -12)"><rect/><foreignObject width="76.0625" height="24"><div xmlns="http://www.w3.org/1999/xhtml" style="display: table-cell; white-space: nowrap; line-height: 1.5; max-width: 200px; text-align: center;"><span class="nodeLabel"><p>RW_Queue</p></span></div></foreignObject></g></g><g class="node  statediagram-state" id="state-RW_Begin-9" transform="translate(200.046875, 489)"><rect class="basic label-container" style="" rx="5" ry="5" x="-42.71875" y="-20" width="85.4375" height="40"/><g class="label" style="" transform="translate(-34.71875, -12)"><rect/><foreignObject width="69.4375" height="24"><div xmlns="http://www.w3.org/1999/xhtml" style="display: table-cell; white-space: nowrap; line-height: 1.5; max-width: 200px; text-align: center;"><span class="nodeLabel"><p>RW_Begin</p></span></div></foreignObject></g></g><g class="node  statediagram-state" id="state-RW_Active-14" transform="translate(200.046875, 659)"><rect class="basic label-container" style="" rx="5" ry="5" x="-45.5703125" y="-20" width="91.140625" height="40"/><g class="label" style="" transform="translate(-37.5703125, -12)"><rect/><foreignObject width="75.140625" height="24"><div xmlns="http://www.w3.org/1999/xhtml" style="display: table-cell; white-space: nowrap; line-height: 1.5; max-width: 200px; text-align: center;"><span class="nodeLabel"><p>RW_Active</p></span></div></foreignObject></g></g><g class="node  statediagram-state" id="state-RW_Write-11" transform="translate(121.88671875, 798)"><rect class="basic label-container" style="" rx="5" ry="5" x="-42.5" y="-20" width="85" height="40"/><g class="label" style="" transform="translate(-34.5, -12)"><rect/><foreignObject width="69" height="24"><div xmlns="http://www.w3.org/1999/xhtml" style="display: table-cell; white-space: nowrap; line-height: 1.5; max-width: 200px; text-align: center;"><span class="nodeLabel"><p>RW_Write</p></span></div></foreignObject></g></g><g class="node  statediagram-state" id="state-RW_Commit-13" transform="translate(298.359375, 798)"><rect class="basic label-container" style="" rx="5" ry="5" x="-50.96875" y="-20" width="101.9375" height="40"/><g class="label" style="" transform="translate(-42.96875, -12)"><rect/><foreignObject width="85.9375" height="24"><div xmlns="http://www.w3.org/1999/xhtml" style="display: table-cell; white-space: nowrap; line-height: 1.5; max-width: 200px; text-align: center;"><span class="nodeLabel"><p>RW_Commit</p></span></div></foreignObject></g></g><g class="node  statediagram-state" id="state-RW_Abort-15" transform="translate(442.234375, 798)"><rect class="basic label-container" style="" rx="5" ry="5" x="-42.90625" y="-20" width="85.8125" height="40"/><g class="label" style="" transform="translate(-34.90625, -12)"><rect/><foreignObject width="69.8125" height="24"><div xmlns="http://www.w3.org/1999/xhtml" style="display: table-cell; white-space: nowrap; line-height: 1.5; max-width: 200px; text-align: center;"><span class="nodeLabel"><p>RW_Abort</p></span></div></foreignObject></g></g><g class="node statediagram-note" id="state-ReadPath----note-16" transform="translate(807.1796875, 489)"><g class="basic label-container"><path d="M-115 -51 L115 -51 L115 51 L-115 51" stroke="none" stroke-width="0" fill="#fff5ad" style=""/><path d="M-115 -51 C-30.374650878702667 -51, 54.250698242594666 -51, 115 -51 M-115 -51 C-23.431832853739053 -51, 68.1363342925219 -51, 115 -51 M115 -51 C115 -17.779748107217856, 115 15.440503785564289, 115 51 M115 -51 C115 -23.91966895441259, 115 3.160662091174821, 115 51 M115 51 C24.8826958148109 51, -65.2346083703782 51, -115 51 M115 51 C41.962624873146154 51, -31.07475025370769 51, -115 51 M-115 51 C-115 13.556384899623907, -115 -23.887230200752185, -115 -51 M-115 51 C-115 15.3020066604792, -115 -20.3959866790416, -115 -51" stroke="#aaaa33" stroke-width="1.3" fill="none" stroke-dasharray="0 0" style=""/></g><g class="label" style="" transform="translate(-100, -36)"><rect/><foreignObject width="200" height="72"><div xmlns="http://www.w3.org/1999/xhtml" style="display: table; white-space: break-spaces; line-height: 1.5; max-width: 200px; text-align: center; width: 200px;"><span class="nodeLabel"><p>여러 읽기 트랜잭션 동시 실행 가능<br />MVCC 스냅샷 격리</p></span></div></foreignObject></g></g><g class="node statediagram-note" id="state-WritePath----note-17" transform="translate(807.1796875, 275)"><g class="basic label-container"><path d="M-114.75 -39 L114.75 -39 L114.75 39 L-114.75 39" stroke="none" stroke-width="0" fill="#fff5ad" style=""/><path d="M-114.75 -39 C-28.607507826513555 -39, 57.53498434697289 -39, 114.75 -39 M-114.75 -39 C-62.37443546480817 -39, -9.998870929616345 -39, 114.75 -39 M114.75 -39 C114.75 -12.848894904445608, 114.75 13.302210191108784, 114.75 39 M114.75 -39 C114.75 -17.757045888004924, 114.75 3.485908223990151, 114.75 39 M114.75 39 C63.85963552166354 39, 12.969271043327083 39, -114.75 39 M114.75 39 C35.19049026407285 39, -44.3690194718543 39, -114.75 39 M-114.75 39 C-114.75 12.868865103837848, -114.75 -13.262269792324304, -114.75 -39 M-114.75 39 C-114.75 16.24038375768658, -114.75 -6.519232484626841, -114.75 -39" stroke="#aaaa33" stroke-width="1.3" fill="none" stroke-dasharray="0 0" style=""/></g><g class="label" style="" transform="translate(-99.75, -24)"><rect/><foreignObject width="199.5" height="48"><div xmlns="http://www.w3.org/1999/xhtml" style="display: table-cell; white-space: nowrap; line-height: 1.5; max-width: 200px; text-align: center;"><span class="nodeLabel"><p>쓰기 트랜잭션은 동시에 1개만<br />전용 라이터 스레드가 직렬화</p></span></div></foreignObject></g></g></g></g></g></svg>